<?xml version="1.0" encoding="iso-8859-1"?>
<!-- Generator: Adobe Illustrator 18.0.0, SVG Export Plug-In . SVG Version: 6.00 Build 0)  -->
<!DOCTYPE svg PUBLIC "-//W3C//DTD SVG 1.1//EN" "http://www.w3.org/Graphics/SVG/1.1/DTD/svg11.dtd">
<svg version="1.1" id="Capa_1" xmlns="http://www.w3.org/2000/svg" xmlns:xlink="http://www.w3.org/1999/xlink" x="0px" y="0px"
	 viewBox="0 0 56 56" style="enable-background:new 0 0 56 56;" xml:space="preserve">
<g>
	<path style="fill:#3D324C;" d="M42.56,42.879l0.378,1.25c0.241,0.796-0.25,1.613-1.11,1.889c-0.886,0.284-1.81,0.532-2.756,0.754
		c-6.256,1.853-14.043,1.927-21.874,0.401c-1.621-0.248-3.247-0.546-4.868-0.905c-1.133-0.251-1.684-1.414-1.084-2.319l0.556-0.839
		C4.666,44.198,0,45.981,0,48c0,3.314,12.536,6,28,6s28-2.686,28-6C56,45.83,50.615,43.933,42.56,42.879z"/>
	<path style="fill:#556080;" d="M18.623,32.819L9.916,43.95C9.316,44.855,9.867,48,11,48.25c10.574,2.34,23.874,2.356,32-0.25
		c0.86-0.276,1.351-3.074,1.11-3.871l-0.581-1.919c-0.518-1.712-2.299-3.408-3.154-5.005c-0.563-1.052-0.833-2.153-0.409-3.302
		c0.876-2.377,1.311-4.868,1.288-7.374c-0.021-2.287-0.567-4.546-1.506-6.67l-1.16-2.624c-1.095-2.475-0.971-5.273,0.419-7.624
		c1.964-3.321,2.46-5.32,2.503-6.455c0.028-0.734-0.737-1.283-1.532-1.132c-2.68,0.51-8.919,2.487-12.252,10.025l-4.55,9.877
		c-0.906,1.966-2.438,3.586-4.105,5.09c-0.869,0.784-1.004,2.013-0.323,2.936C19.395,30.833,19.345,31.989,18.623,32.819z"/>
	<polygon style="fill:#F0C419;" points="24.992,31.279 25.922,33.162 28,33.464 26.496,34.93 26.851,37 24.992,36.023 23.134,37 
		23.489,34.93 21.985,33.464 24.063,33.162 	"/>
	<polygon style="fill:#F0C419;" points="34.992,28 35.922,29.883 38,30.185 36.496,31.651 36.851,33.721 34.992,32.743 
		33.134,33.721 33.489,31.651 31.985,30.185 34.063,29.883 	"/>
	<polygon style="fill:#F0C419;" points="29.008,21 29.937,22.883 32.015,23.185 30.511,24.651 30.866,26.721 29.008,25.743 
		27.149,26.721 27.504,24.651 26,23.185 28.078,22.883 	"/>
	<polygon style="fill:#F0C419;" points="32.992,12 33.922,13.883 36,14.185 34.496,15.651 34.851,17.721 32.992,16.743 
		31.134,17.721 31.489,15.651 29.985,14.185 32.063,13.883 	"/>
	<path style="fill:#8697CB;" d="M27.958,39.768c4.378,0,9.963-0.162,13.84-0.479c-0.482-0.644-0.957-1.279-1.313-1.9
		c-6.795,0.481-17.933,0.504-25.49,0.069l-1.487,1.901C17.796,39.63,23.913,39.768,27.958,39.768z"/>
</g>
<g>
</g>
<g>
</g>
<g>
</g>
<g>
</g>
<g>
</g>
<g>
</g>
<g>
</g>
<g>
</g>
<g>
</g>
<g>
</g>
<g>
</g>
<g>
</g>
<g>
</g>
<g>
</g>
<g>
</g>
</svg>
