<?xml version="1.0" encoding="UTF-8" standalone="no"?>
<!-- Created with Inkscape (http://www.inkscape.org/) -->
<svg id="svg2" xmlns:rdf="http://www.w3.org/1999/02/22-rdf-syntax-ns#" xmlns="http://www.w3.org/2000/svg" height="1.7385in" width="8.2845in" version="1.1" xmlns:cc="http://creativecommons.org/ns#" xmlns:dc="http://purl.org/dc/elements/1.1/" viewBox="0 0 745.60475 156.46058">
 <metadata id="metadata7">
  <rdf:RDF>
   <cc:Work rdf:about="">
    <dc:format>image/svg+xml</dc:format>
    <dc:type rdf:resource="http://purl.org/dc/dcmitype/StillImage"/>
    <dc:title/>
   </cc:Work>
  </rdf:RDF>
 </metadata>
 <g id="layer1" transform="translate(-212.39 -591.27)">
  <g id="g4445" transform="matrix(.30557 -.27036 .27036 .30557 125.4 636.61)">
   <g id="g4399">
    <path id="path4401" fill="#35495e" d="m358.79 194.02c-3.222-35.39-31.938-61.608-67.478-61.608-5.667 0-11.785 2.675-14.106 7.857-4.829 10.77-12.518 18.626-21.204 18.626-8.678 0-16.375-7.857-21.195-18.626-2.322-5.182-8.439-7.857-14.115-7.857-35.531 0-64.247 26.218-67.469 61.608l-11.979 110.71c75.52 17.426 154.01 17.426 229.52 0l-11.97-110.71z"/>
    <path id="path4403" fill="#f0c419" d="m146.52 256-5.27 48.728c18.882 4.352 37.941 7.618 57.097 9.799 38.312 4.352 77.003 4.352 115.32 0 19.147-2.18 38.215-5.447 57.097-9.799l-5.27-48.728h-218.98z"/>
    <path id="path4405" fill="#2c3e50" d="m367.98 278.99 2.781 25.741c-75.511 17.426-154 17.426-229.52 0l2.79-25.741c-85.265 8.59-144.03 26.68-144.03 47.63 0 29.255 114.62 52.966 256 52.966 141.39 0 256-23.711 256-52.966 0-20.948-58.756-39.036-144.02-47.634"/>
    <path id="path4407" fill="#fff" d="m256 300.13c-4.873 0-8.828-3.946-8.828-8.828v-8.819c0-4.882 3.955-8.828 8.828-8.828s8.828 3.946 8.828 8.828v8.819c-0.001 4.882-3.956 8.828-8.828 8.828"/>
   </g>
  </g>
  <g font-size="60px" font-family="&apos;zwodrei - free&apos;" font-weight="bold" fill="#000000">
   <flowRoot id="flowRoot4467" style="word-spacing:0px;letter-spacing:0px" xml:space="preserve" transform="translate(0 308.27)" line-height="125%"><flowRegion id="flowRegion4469"><rect id="rect4471" height="151.52" width="331.33" y="255.18" x="567.71"/></flowRegion><flowPara id="flowPara4473"/></flowRoot>
   <flowRoot id="flowRoot4475" style="word-spacing:0px;letter-spacing:0px" xml:space="preserve" transform="translate(0 308.27)" line-height="125%"><flowRegion id="flowRegion4477"><rect id="rect4479" height="161.62" width="189.91" y="477.41" x="610.13"/></flowRegion><flowPara id="flowPara4481"/></flowRoot>
   <flowRoot id="flowRoot4483" style="word-spacing:0px;letter-spacing:0px" xml:space="preserve" transform="translate(0 308.27)" line-height="125%"><flowRegion id="flowRegion4485"><rect id="rect4487" height="204.05" width="422.24" y="307.71" x="490.93"/></flowRegion><flowPara id="flowPara4489"/></flowRoot>
  </g>
  <g id="flowRoot4491" style="word-spacing:0px;letter-spacing:0px" transform="translate(-125.26 320.39)" line-height="125%" font-size="122.5px" font-family="sans-serif">
   <g font-size="40px" fill="#000000">
    <flowRoot id="flowRoot3386" style="word-spacing:0px;letter-spacing:0px" xml:space="preserve" transform="translate(337.65 270.88)" line-height="125%" font-family="sans-serif"><flowRegion id="flowRegion3388"><rect id="rect3390" y="84.102" width="175.77" x="143.44" height="78.792"/></flowRegion><flowPara id="flowPara3392"/></flowRoot>
    <flowRoot id="flowRoot3394" style="word-spacing:0px;letter-spacing:0px" xml:space="preserve" transform="translate(337.65 270.88)" line-height="125%" font-family="sans-serif"><flowRegion id="flowRegion3396"><rect id="rect3398" y="45.716" width="420.22" x="141.42" height="94.954"/></flowRegion><flowPara id="flowPara3400"/></flowRoot>
    <flowRoot id="flowRoot3402" style="word-spacing:0px;letter-spacing:0px" font-weight="bold" xml:space="preserve" transform="translate(337.65 270.88)" line-height="125%" font-family="&apos;zwodrei - free&apos;"><flowRegion id="flowRegion3404"><rect id="rect3406" height="117.18" width="678.82" y="39.655" x="157.58"/></flowRegion><flowPara id="flowPara3408"/></flowRoot>
    <flowRoot id="flowRoot3410" style="word-spacing:0px;letter-spacing:0px" xml:space="preserve" transform="translate(337.65 270.88)" line-height="125%" font-family="sans-serif"><flowRegion id="flowRegion3412"><rect id="rect3414" y="65.919" width="660.64" x="139.4" height="62.629"/></flowRegion><flowPara id="flowPara3416"/></flowRoot>
    <flowRoot id="flowRoot3418" style="word-spacing:0px;letter-spacing:0px" xml:space="preserve" transform="translate(337.65 270.88)" line-height="125%" font-family="sans-serif"><flowRegion id="flowRegion3420"><rect id="rect3422" y="53.798" width="323.25" x="139.4" height="105.06"/></flowRegion><flowPara id="flowPara3424"/></flowRoot>
   </g>
   <g id="flowRoot3426" fill="#2c3e50" transform="translate(315.43 264.82)">
    <path id="path4235" d="m175.71 99.767q-3.6-1.4625-6.75-3.2625-3.0375-1.8-5.2875-4.275-2.25-2.5875-3.4875-5.9625-1.2375-3.4875-1.2375-8.2125 0-5.85 2.025-10.238 2.025-4.5 5.625-7.5375 3.7125-3.0375 8.8875-4.6125t11.475-1.575q5.175 0 10.575 1.125 5.4 1.0125 12.938 3.6l-7.65 13.725q-7.3125-3.4875-15.412-3.4875-1.575 0-3.2625 0.3375t-3.0375 1.2375q-1.35 0.7875-2.25 2.25t-0.9 3.825q0 1.9125 0.675 3.15 0.7875 1.2375 1.9125 2.1375t2.5875 1.575q1.4625 0.5625 2.925 1.125l6.6375 2.5875q4.275 1.6875 7.7625 3.6 3.6 1.8 6.075 4.5 2.475 2.5875 3.825 6.4125t1.35 9.5625-2.1375 10.462q-2.025 4.725-6.075 8.1-3.9375 3.2625-9.7875 5.175-5.85 1.8-13.388 1.8-3.4875 0-6.4125-0.225t-5.7375-0.7875q-2.7-0.5625-5.5125-1.35-2.7-0.7875-5.85-2.025l3.825-15.75q4.6125 1.2375 9 2.25 4.5 0.9 9.1125 0.9 6.1875 0 9.45-1.575 3.2625-1.6875 3.825-6.3 0.225-2.3625-0.5625-3.9375t-2.25-2.5875q-1.4625-1.125-3.2625-1.8t-3.6-1.35l-6.6375-2.5875z"/>
    <path id="path4237" d="m239.91 76.929v58.725h-16.988v-40.613l0.5625-4.05h-9.675l7.65-14.062h18.45zm-0.45-4.8375h-16.875v-15.3h16.875v15.3z"/>
    <path id="path4239" d="m254.26 90.879h-9.45l7.425-13.95h16.312l1.4625 6.3q2.8125-3.0375 6.6375-5.0625 3.9375-2.025 9-2.025 10.238 0 15.188 5.5125 4.95 5.4 4.95 17.212v36.788h-17.1v-33.862q0-5.175-2.5875-7.425-2.475-2.25-6.4125-2.25-3.2625 0-5.85 2.25-2.5875 2.1375-2.5875 7.2v34.088h-16.988v-44.775z"/>
    <path id="path4241" d="m347.93 109.89q-1.125-0.225-2.3625-0.225-1.2375-0.1125-2.1375-0.1125-4.725 0-7.65 1.4625t-2.925 5.0625q0 2.25 1.0125 3.6 1.125 1.2375 2.7 1.9125 1.575 0.5625 3.2625 0.675 1.8 0.1125 3.0375 0.1125 2.25 0 5.0625-0.5625v-11.925zm-5.85-12.375q0.9 0 2.3625 0.1125 1.575 0 3.4875 0.1125-0.1125-4.3875-3.15-5.625-2.925-1.35-7.65-1.35-2.5875 0-5.9625 0.675-3.375 0.5625-7.3125 1.8l-1.8-6.1875q-0.3375-1.2375-1.0125-3.6-0.5625-2.3625-0.7875-3.7125 5.625-1.9125 10.575-2.7 5.0625-0.9 9.1125-0.9 11.925 0 18.45 5.7375 6.525 5.625 6.525 18.112v32.963q-4.3875 1.2375-10.125 2.475-5.7375 1.125-12.375 1.125-5.85 0-10.688-1.0125-4.725-1.0125-8.2125-3.375-3.375-2.3625-5.2875-6.1875-1.8-3.825-1.8-9.3375t2.25-9.225q2.3625-3.7125 5.9625-5.85 3.7125-2.25 8.2125-3.15 4.6125-0.9 9.225-0.9z"/>
    <path id="path4243" d="m377.54 90.992h-6.975v-14.175h6.975v-15.975h16.875v15.975h13.95l-7.875 14.175h-6.6375l0.5625 3.6v17.663q0 2.925 0.3375 4.725 0.45 1.8 1.2375 2.8125 0.9 1.0125 2.1375 1.4625 1.35 0.3375 3.0375 0.3375 1.2375 0 3.0375-0.225 1.8-0.3375 3.825-0.675l0.9 7.5375 0.675 6.75q-3.2625 0.675-5.9625 1.0125t-5.5125 0.3375q-10.462 0-15.525-4.8375-5.0625-4.8375-5.0625-15.975v-24.525z"/>
    <path id="path4245" d="m438.62 78.954q1.35-0.9 3.7125-1.6875 2.475-0.9 5.5125-0.9 2.5875 0 4.1625 0.225 1.6875 0.225 1.6875 0.1125v14.962q-2.5875-0.225-5.0625-0.1125-2.1375 0.225-4.5 0.7875-2.25 0.45-4.1625 1.8-2.25 1.575-3.2625 4.275-0.9 2.7-0.9 7.425v29.925h-16.875v-44.663h-9.1125l7.2-14.288h18.788v4.3875q0.5625-0.45 1.0125-0.9 0.45-0.3375 0.9-0.675 0.45-0.45 0.9-0.675z"/>
    <path id="path4247" d="m490.87 109.89q-1.125-0.225-2.3625-0.225-1.2375-0.1125-2.1375-0.1125-4.725 0-7.65 1.4625t-2.925 5.0625q0 2.25 1.0125 3.6 1.125 1.2375 2.7 1.9125 1.575 0.5625 3.2625 0.675 1.8 0.1125 3.0375 0.1125 2.25 0 5.0625-0.5625v-11.925zm-5.85-12.375q0.9 0 2.3625 0.1125 1.575 0 3.4875 0.1125-0.1125-4.3875-3.15-5.625-2.925-1.35-7.65-1.35-2.5875 0-5.9625 0.675-3.375 0.5625-7.3125 1.8l-1.8-6.1875q-0.3375-1.2375-1.0125-3.6-0.5625-2.3625-0.7875-3.7125 5.625-1.9125 10.575-2.7 5.0625-0.9 9.1125-0.9 11.925 0 18.45 5.7375 6.525 5.625 6.525 18.112v32.963q-4.3875 1.2375-10.125 2.475-5.7375 1.125-12.375 1.125-5.85 0-10.688-1.0125-4.725-1.0125-8.2125-3.375-3.375-2.3625-5.2875-6.1875-1.8-3.825-1.8-9.3375t2.25-9.225q2.3625-3.7125 5.9625-5.85 3.7125-2.25 8.2125-3.15 4.6125-0.9 9.225-0.9z"/>
    <path id="path4249" d="m547.78 55.554q4.5-0.7875 9.45-1.0125 4.95-0.3375 11.588-0.3375 6.3 0 11.7 1.0125 5.5125 1.0125 9.5625 3.4875t6.3 6.6375q2.3625 4.1625 2.3625 10.462 0 5.175-2.1375 9.5625-2.025 4.3875-5.175 6.975 2.3625 1.0125 4.6125 2.7 2.25 1.575 3.9375 4.05 1.8 2.475 2.925 5.85 1.125 3.2625 1.125 7.425 0 7.425-2.7 12.262-2.7 4.725-7.425 7.425-4.6125 2.7-10.688 3.7125-6.075 1.125-12.825 1.125-4.725 0-10.35-0.3375-5.5125-0.225-12.262-1.0125v-79.988zm18.45 65.7q1.575 0.225 3.15 0.3375 1.6875 0 2.925 0 2.025 0 4.3875-0.3375 2.3625-0.45 4.275-1.575t3.15-3.0375q1.35-2.025 1.35-5.2875 0-3.0375-1.0125-4.95t-2.8125-2.925q-1.8-1.125-4.3875-1.575-2.475-0.45-5.625-0.45h-5.4v19.8zm3.6-34.2q5.0625 0.225 8.325-1.8t3.2625-7.7625q0-2.8125-1.0125-4.5-1.0125-1.8-2.7-2.8125-1.575-1.0125-3.6-1.35-1.9125-0.3375-3.825-0.3375-1.125 0-2.025 0t-2.025 0.225v18.225l3.6 0.1125z"/>
    <path id="path4251" d="m615.9 54.317h16.988v57.938q0 2.925 0.3375 4.725t1.0125 2.8125q0.7875 1.0125 1.9125 1.35t2.7 0.3375q0.7875 0 1.8 0 1.0125-0.1125 3.375-0.5625l1.0125 14.062q-2.925 0.9-5.5125 1.125-2.475 0.225-4.5 0.225-9 0-14.062-4.8375-5.0625-4.95-5.0625-15.975v-61.2z"/>
    <path id="path4253" d="m677.66 76.254q5.85 0 10.912 1.6875 5.0625 1.575 8.6625 5.175 3.7125 3.6 5.7375 9.3375 2.1375 5.7375 2.1375 13.838 0 8.1-2.1375 13.838-2.025 5.7375-5.7375 9.3375-3.6 3.6-8.6625 5.2875-5.0625 1.575-10.912 1.575-5.9625 0-11.025-1.575-4.95-1.6875-8.6625-5.2875-3.6-3.6-5.7375-9.3375-2.025-5.7375-2.025-13.838 0-7.9875 2.025-13.613 2.1375-5.7375 5.7375-9.3375 3.7125-3.7125 8.6625-5.4 5.0625-1.6875 11.025-1.6875zm0 45.338q5.0625 0 7.875-3.375 2.925-3.375 2.925-11.925t-2.925-11.925q-2.8125-3.4875-7.875-3.4875-4.95 0-7.9875 3.6-2.925 3.4875-2.925 11.813 0 8.55 2.925 11.925t7.9875 3.375z"/>
    <path id="path4255" d="m766.93 85.367-3.7125 4.725q0.78749 1.575 1.125 3.4875 0.3375 1.8 0.3375 3.6 0 4.05-1.35 7.9875-1.2375 3.9375-4.275 7.2-2.925 3.15-7.65 5.175-4.725 1.9125-11.588 2.025-0.44999 0.3375-1.125 1.0125-0.675 0.5625-0.675 1.35 0 0.9 1.2375 1.35 1.35 0.45 2.5875 0.5625 1.9125 0.225 3.9375 0.45 2.1375 0.1125 4.05 0.3375 4.3875 0.45 7.7625 2.025 3.375 1.4625 5.625 3.825t3.375 5.4q1.2375 3.0375 1.2375 6.525 0 6.075-2.3625 10.012-2.25 4.05-5.9625 6.3-3.7125 2.3625-8.55 3.15-4.725 0.9-9.7875 0.5625-4.05-0.225-8.1-1.35-3.9375-1.125-7.5375-2.8125t-6.6375-3.9375-5.175-4.725l7.65-10.238q3.375 2.475 6.1875 4.05t5.2875 2.475 4.5 1.2375q2.025 0.45 3.825 0.675 1.6875 0.1125 3.375 0 1.8-0.1125 3.2625-0.7875 1.4625-0.5625 2.3625-1.6875 0.9-1.0125 0.9-2.925 0-2.7-2.025-3.9375-1.9125-1.125-6.4125-1.4625-1.6875-0.1125-3.4875-0.3375-1.6875-0.1125-3.375-0.225-6.6375-0.5625-10.35-3.6-3.6-3.15-3.6-7.875 0-2.5875 1.0125-4.6125 1.0125-2.1375 2.925-4.3875-5.4-3.2625-8.1-8.2125-2.5875-5.0625-2.5875-10.463 0-4.3875 1.6875-8.2125 1.6875-3.9375 4.8375-6.75 3.2625-2.925 7.875-4.5 4.725-1.6875 10.688-1.6875 3.375 0 6.975 0.9 3.6 0.7875 6.1875 2.1375 0 0.1125 2.025-0.675 2.1375-0.7875 4.725-1.6875 2.925-1.125 6.8625-2.3625v10.912zm-26.663 3.0375q-3.2625 0-5.4 2.3625-2.1375 2.25-2.1375 6.525 0 4.725 2.1375 6.525t5.2875 1.8q3.7125 0 5.5125-2.475 1.9125-2.475 1.9125-6.075 0-4.05-1.9125-6.3-1.8-2.3625-5.4-2.3625z"/>
   </g>
  </g>
 </g>
</svg>
