<?xml version="1.0" encoding="UTF-8" standalone="no"?>
<!-- Created with Inkscape (http://www.inkscape.org/) -->
<svg id="svg2" xmlns:rdf="http://www.w3.org/1999/02/22-rdf-syntax-ns#" xmlns="http://www.w3.org/2000/svg" height="1.1619in" width="6.4367in" version="1.1" xmlns:cc="http://creativecommons.org/ns#" xmlns:dc="http://purl.org/dc/elements/1.1/" viewBox="0 0 579.30342 104.57222">
 <metadata id="metadata7">
  <rdf:RDF>
   <cc:Work rdf:about="">
    <dc:format>image/svg+xml</dc:format>
    <dc:type rdf:resource="http://purl.org/dc/dcmitype/StillImage"/>
    <dc:title/>
   </cc:Work>
  </rdf:RDF>
 </metadata>
 <g id="layer1" transform="translate(-367.98 -626.73)">
  <g font-size="60px" font-family="&apos;zwodrei - free&apos;" font-weight="bold" fill="#000000">
   <flowRoot id="flowRoot4467" style="word-spacing:0px;letter-spacing:0px" xml:space="preserve" transform="translate(0 308.27)" line-height="125%"><flowRegion id="flowRegion4469"><rect id="rect4471" height="151.52" width="331.33" y="255.18" x="567.71"/></flowRegion><flowPara id="flowPara4473"/></flowRoot>
   <flowRoot id="flowRoot4475" style="word-spacing:0px;letter-spacing:0px" xml:space="preserve" transform="translate(0 308.27)" line-height="125%"><flowRegion id="flowRegion4477"><rect id="rect4479" height="161.62" width="189.91" y="477.41" x="610.13"/></flowRegion><flowPara id="flowPara4481"/></flowRoot>
   <flowRoot id="flowRoot4483" style="word-spacing:0px;letter-spacing:0px" xml:space="preserve" transform="translate(0 308.27)" line-height="125%"><flowRegion id="flowRegion4485"><rect id="rect4487" height="204.05" width="422.24" y="307.71" x="490.93"/></flowRegion><flowPara id="flowPara4489"/></flowRoot>
  </g>
  <g id="flowRoot4491" style="word-spacing:0px;letter-spacing:0px" transform="matrix(.85507 0 0 .85507 21.019 365.89)" line-height="125%" font-size="122.5px" font-family="sans-serif">
   <g font-size="40px" fill="#000000">
    <flowRoot id="flowRoot3386" style="word-spacing:0px;letter-spacing:0px" xml:space="preserve" transform="translate(337.65 270.88)" line-height="125%" font-family="sans-serif"><flowRegion id="flowRegion3388"><rect id="rect3390" y="84.102" width="175.77" x="143.44" height="78.792"/></flowRegion><flowPara id="flowPara3392"/></flowRoot>
    <flowRoot id="flowRoot3394" style="word-spacing:0px;letter-spacing:0px" xml:space="preserve" transform="translate(337.65 270.88)" line-height="125%" font-family="sans-serif"><flowRegion id="flowRegion3396"><rect id="rect3398" y="45.716" width="420.22" x="141.42" height="94.954"/></flowRegion><flowPara id="flowPara3400"/></flowRoot>
    <flowRoot id="flowRoot3402" style="word-spacing:0px;letter-spacing:0px" font-weight="bold" xml:space="preserve" transform="translate(337.65 270.88)" line-height="125%" font-family="&apos;zwodrei - free&apos;"><flowRegion id="flowRegion3404"><rect id="rect3406" height="117.18" width="678.82" y="39.655" x="157.58"/></flowRegion><flowPara id="flowPara3408"/></flowRoot>
    <flowRoot id="flowRoot3410" style="word-spacing:0px;letter-spacing:0px" xml:space="preserve" transform="translate(337.65 270.88)" line-height="125%" font-family="sans-serif"><flowRegion id="flowRegion3412"><rect id="rect3414" y="65.919" width="660.64" x="139.4" height="62.629"/></flowRegion><flowPara id="flowPara3416"/></flowRoot>
    <flowRoot id="flowRoot3418" style="word-spacing:0px;letter-spacing:0px" xml:space="preserve" transform="translate(337.65 270.88)" line-height="125%" font-family="sans-serif"><flowRegion id="flowRegion3420"><rect id="rect3422" y="53.798" width="323.25" x="139.4" height="105.06"/></flowRegion><flowPara id="flowPara3424"/></flowRoot>
   </g>
   <g id="flowRoot3426" fill="#2c3e50" transform="translate(315.43 264.82)">
    <path id="path4235" d="m175.71 99.767q-3.6-1.4625-6.75-3.2625-3.0375-1.8-5.2875-4.275-2.25-2.5875-3.4875-5.9625-1.2375-3.4875-1.2375-8.2125 0-5.85 2.025-10.238 2.025-4.5 5.625-7.5375 3.7125-3.0375 8.8875-4.6125t11.475-1.575q5.175 0 10.575 1.125 5.4 1.0125 12.938 3.6l-7.65 13.725q-7.3125-3.4875-15.412-3.4875-1.575 0-3.2625 0.3375t-3.0375 1.2375q-1.35 0.7875-2.25 2.25t-0.9 3.825q0 1.9125 0.675 3.15 0.7875 1.2375 1.9125 2.1375t2.5875 1.575q1.4625 0.5625 2.925 1.125l6.6375 2.5875q4.275 1.6875 7.7625 3.6 3.6 1.8 6.075 4.5 2.475 2.5875 3.825 6.4125t1.35 9.5625-2.1375 10.462q-2.025 4.725-6.075 8.1-3.9375 3.2625-9.7875 5.175-5.85 1.8-13.388 1.8-3.4875 0-6.4125-0.225t-5.7375-0.7875q-2.7-0.5625-5.5125-1.35-2.7-0.7875-5.85-2.025l3.825-15.75q4.6125 1.2375 9 2.25 4.5 0.9 9.1125 0.9 6.1875 0 9.45-1.575 3.2625-1.6875 3.825-6.3 0.225-2.3625-0.5625-3.9375t-2.25-2.5875q-1.4625-1.125-3.2625-1.8t-3.6-1.35l-6.6375-2.5875z"/>
    <path id="path4237" d="m239.91 76.929v58.725h-16.988v-40.613l0.5625-4.05h-9.675l7.65-14.062h18.45zm-0.45-4.8375h-16.875v-15.3h16.875v15.3z"/>
    <path id="path4239" d="m254.26 90.879h-9.45l7.425-13.95h16.312l1.4625 6.3q2.8125-3.0375 6.6375-5.0625 3.9375-2.025 9-2.025 10.238 0 15.188 5.5125 4.95 5.4 4.95 17.212v36.788h-17.1v-33.862q0-5.175-2.5875-7.425-2.475-2.25-6.4125-2.25-3.2625 0-5.85 2.25-2.5875 2.1375-2.5875 7.2v34.088h-16.988v-44.775z"/>
    <path id="path4241" d="m347.93 109.89q-1.125-0.225-2.3625-0.225-1.2375-0.1125-2.1375-0.1125-4.725 0-7.65 1.4625t-2.925 5.0625q0 2.25 1.0125 3.6 1.125 1.2375 2.7 1.9125 1.575 0.5625 3.2625 0.675 1.8 0.1125 3.0375 0.1125 2.25 0 5.0625-0.5625v-11.925zm-5.85-12.375q0.9 0 2.3625 0.1125 1.575 0 3.4875 0.1125-0.1125-4.3875-3.15-5.625-2.925-1.35-7.65-1.35-2.5875 0-5.9625 0.675-3.375 0.5625-7.3125 1.8l-1.8-6.1875q-0.3375-1.2375-1.0125-3.6-0.5625-2.3625-0.7875-3.7125 5.625-1.9125 10.575-2.7 5.0625-0.9 9.1125-0.9 11.925 0 18.45 5.7375 6.525 5.625 6.525 18.112v32.963q-4.3875 1.2375-10.125 2.475-5.7375 1.125-12.375 1.125-5.85 0-10.688-1.0125-4.725-1.0125-8.2125-3.375-3.375-2.3625-5.2875-6.1875-1.8-3.825-1.8-9.3375t2.25-9.225q2.3625-3.7125 5.9625-5.85 3.7125-2.25 8.2125-3.15 4.6125-0.9 9.225-0.9z"/>
    <path id="path4243" d="m377.54 90.992h-6.975v-14.175h6.975v-15.975h16.875v15.975h13.95l-7.875 14.175h-6.6375l0.5625 3.6v17.663q0 2.925 0.3375 4.725 0.45 1.8 1.2375 2.8125 0.9 1.0125 2.1375 1.4625 1.35 0.3375 3.0375 0.3375 1.2375 0 3.0375-0.225 1.8-0.3375 3.825-0.675l0.9 7.5375 0.675 6.75q-3.2625 0.675-5.9625 1.0125t-5.5125 0.3375q-10.462 0-15.525-4.8375-5.0625-4.8375-5.0625-15.975v-24.525z"/>
    <path id="path4245" d="m438.62 78.954q1.35-0.9 3.7125-1.6875 2.475-0.9 5.5125-0.9 2.5875 0 4.1625 0.225 1.6875 0.225 1.6875 0.1125v14.962q-2.5875-0.225-5.0625-0.1125-2.1375 0.225-4.5 0.7875-2.25 0.45-4.1625 1.8-2.25 1.575-3.2625 4.275-0.9 2.7-0.9 7.425v29.925h-16.875v-44.663h-9.1125l7.2-14.288h18.788v4.3875q0.5625-0.45 1.0125-0.9 0.45-0.3375 0.9-0.675 0.45-0.45 0.9-0.675z"/>
    <path id="path4247" d="m490.87 109.89q-1.125-0.225-2.3625-0.225-1.2375-0.1125-2.1375-0.1125-4.725 0-7.65 1.4625t-2.925 5.0625q0 2.25 1.0125 3.6 1.125 1.2375 2.7 1.9125 1.575 0.5625 3.2625 0.675 1.8 0.1125 3.0375 0.1125 2.25 0 5.0625-0.5625v-11.925zm-5.85-12.375q0.9 0 2.3625 0.1125 1.575 0 3.4875 0.1125-0.1125-4.3875-3.15-5.625-2.925-1.35-7.65-1.35-2.5875 0-5.9625 0.675-3.375 0.5625-7.3125 1.8l-1.8-6.1875q-0.3375-1.2375-1.0125-3.6-0.5625-2.3625-0.7875-3.7125 5.625-1.9125 10.575-2.7 5.0625-0.9 9.1125-0.9 11.925 0 18.45 5.7375 6.525 5.625 6.525 18.112v32.963q-4.3875 1.2375-10.125 2.475-5.7375 1.125-12.375 1.125-5.85 0-10.688-1.0125-4.725-1.0125-8.2125-3.375-3.375-2.3625-5.2875-6.1875-1.8-3.825-1.8-9.3375t2.25-9.225q2.3625-3.7125 5.9625-5.85 3.7125-2.25 8.2125-3.15 4.6125-0.9 9.225-0.9z"/>
    <path id="path4249" d="m547.78 55.554q4.5-0.7875 9.45-1.0125 4.95-0.3375 11.588-0.3375 6.3 0 11.7 1.0125 5.5125 1.0125 9.5625 3.4875t6.3 6.6375q2.3625 4.1625 2.3625 10.462 0 5.175-2.1375 9.5625-2.025 4.3875-5.175 6.975 2.3625 1.0125 4.6125 2.7 2.25 1.575 3.9375 4.05 1.8 2.475 2.925 5.85 1.125 3.2625 1.125 7.425 0 7.425-2.7 12.262-2.7 4.725-7.425 7.425-4.6125 2.7-10.688 3.7125-6.075 1.125-12.825 1.125-4.725 0-10.35-0.3375-5.5125-0.225-12.262-1.0125v-79.988zm18.45 65.7q1.575 0.225 3.15 0.3375 1.6875 0 2.925 0 2.025 0 4.3875-0.3375 2.3625-0.45 4.275-1.575t3.15-3.0375q1.35-2.025 1.35-5.2875 0-3.0375-1.0125-4.95t-2.8125-2.925q-1.8-1.125-4.3875-1.575-2.475-0.45-5.625-0.45h-5.4v19.8zm3.6-34.2q5.0625 0.225 8.325-1.8t3.2625-7.7625q0-2.8125-1.0125-4.5-1.0125-1.8-2.7-2.8125-1.575-1.0125-3.6-1.35-1.9125-0.3375-3.825-0.3375-1.125 0-2.025 0t-2.025 0.225v18.225l3.6 0.1125z"/>
    <path id="path4251" d="m615.9 54.317h16.988v57.938q0 2.925 0.3375 4.725t1.0125 2.8125q0.7875 1.0125 1.9125 1.35t2.7 0.3375q0.7875 0 1.8 0 1.0125-0.1125 3.375-0.5625l1.0125 14.062q-2.925 0.9-5.5125 1.125-2.475 0.225-4.5 0.225-9 0-14.062-4.8375-5.0625-4.95-5.0625-15.975v-61.2z"/>
    <path id="path4253" d="m677.66 76.254q5.85 0 10.912 1.6875 5.0625 1.575 8.6625 5.175 3.7125 3.6 5.7375 9.3375 2.1375 5.7375 2.1375 13.838 0 8.1-2.1375 13.838-2.025 5.7375-5.7375 9.3375-3.6 3.6-8.6625 5.2875-5.0625 1.575-10.912 1.575-5.9625 0-11.025-1.575-4.95-1.6875-8.6625-5.2875-3.6-3.6-5.7375-9.3375-2.025-5.7375-2.025-13.838 0-7.9875 2.025-13.613 2.1375-5.7375 5.7375-9.3375 3.7125-3.7125 8.6625-5.4 5.0625-1.6875 11.025-1.6875zm0 45.338q5.0625 0 7.875-3.375 2.925-3.375 2.925-11.925t-2.925-11.925q-2.8125-3.4875-7.875-3.4875-4.95 0-7.9875 3.6-2.925 3.4875-2.925 11.813 0 8.55 2.925 11.925t7.9875 3.375z"/>
    <path id="path4255" d="m766.93 85.367-3.7125 4.725q0.78749 1.575 1.125 3.4875 0.3375 1.8 0.3375 3.6 0 4.05-1.35 7.9875-1.2375 3.9375-4.275 7.2-2.925 3.15-7.65 5.175-4.725 1.9125-11.588 2.025-0.44999 0.3375-1.125 1.0125-0.675 0.5625-0.675 1.35 0 0.9 1.2375 1.35 1.35 0.45 2.5875 0.5625 1.9125 0.225 3.9375 0.45 2.1375 0.1125 4.05 0.3375 4.3875 0.45 7.7625 2.025 3.375 1.4625 5.625 3.825t3.375 5.4q1.2375 3.0375 1.2375 6.525 0 6.075-2.3625 10.012-2.25 4.05-5.9625 6.3-3.7125 2.3625-8.55 3.15-4.725 0.9-9.7875 0.5625-4.05-0.225-8.1-1.35-3.9375-1.125-7.5375-2.8125t-6.6375-3.9375-5.175-4.725l7.65-10.238q3.375 2.475 6.1875 4.05t5.2875 2.475 4.5 1.2375q2.025 0.45 3.825 0.675 1.6875 0.1125 3.375 0 1.8-0.1125 3.2625-0.7875 1.4625-0.5625 2.3625-1.6875 0.9-1.0125 0.9-2.925 0-2.7-2.025-3.9375-1.9125-1.125-6.4125-1.4625-1.6875-0.1125-3.4875-0.3375-1.6875-0.1125-3.375-0.225-6.6375-0.5625-10.35-3.6-3.6-3.15-3.6-7.875 0-2.5875 1.0125-4.6125 1.0125-2.1375 2.925-4.3875-5.4-3.2625-8.1-8.2125-2.5875-5.0625-2.5875-10.463 0-4.3875 1.6875-8.2125 1.6875-3.9375 4.8375-6.75 3.2625-2.925 7.875-4.5 4.725-1.6875 10.688-1.6875 3.375 0 6.975 0.9 3.6 0.7875 6.1875 2.1375 0 0.1125 2.025-0.675 2.1375-0.7875 4.725-1.6875 2.925-1.125 6.8625-2.3625v10.912zm-26.663 3.0375q-3.2625 0-5.4 2.3625-2.1375 2.25-2.1375 6.525 0 4.725 2.1375 6.525t5.2875 1.8q3.7125 0 5.5125-2.475 1.9125-2.475 1.9125-6.075 0-4.05-1.9125-6.3-1.8-2.3625-5.4-2.3625z"/>
   </g>
  </g>
  <g id="g3446" transform="matrix(.26168 0 0 .26168 353.78 626.73)">
   <g id="g3406">
    <path id="path3408" fill="#2c3e50" d="m203.02 79.903 57.017 20.487 1.791-4.989c10.22-28.443-4.61-59.896-33.04-70.114l-61.35-22.041c-5.98-2.154-12.22-3.246-18.53-3.246-23.05 0-43.78 14.581-51.578 36.285l-1.792 4.989 61.05 21.935c1.533 0.554 2.327 2.245 1.781 3.772-0.539 1.488-2.242 2.327-3.77 1.781l-61.053-21.942-9.724 27.063 61.047 21.937c1.533 0.551 2.328 2.242 1.781 3.77-0.541 1.489-2.252 2.328-3.77 1.782l-61.046-21.94-9.724 27.06 61.05 21.94c1.533 0.552 2.328 2.242 1.781 3.775-0.536 1.488-2.242 2.333-3.77 1.776l-61.058-21.942-9.719 27.066 61.047 21.935c0.743 0.265 1.336 0.808 1.675 1.522 0.334 0.709 0.373 1.512 0.106 2.252-0.536 1.486-2.252 2.326-3.77 1.776l-61.189-21.988-1.621 5.331c-7.801 25.616 4.06 52.61 27.237 64.555v44.066l0.142 0.052-0.142 60.708h37.911l0.632-46.354 0.171 0.067 43.639-30.499c1.362 0.099 2.724 0.171 4.091 0.171 22.178 0 42.025-13.246 50.564-33.746l2.144-5.142-57.151-20.547c-0.74-0.259-1.33-0.798-1.672-1.512-0.332-0.715-0.368-1.518-0.109-2.258 0.528-1.486 2.253-2.33 3.771-1.781l57.016 20.489 9.725-27.061-57.017-20.49c-0.74-0.264-1.33-0.805-1.667-1.517-0.331-0.709-0.373-1.515-0.108-2.258 0.533-1.486 2.252-2.327 3.77-1.776l57.017 20.485 9.724-27.062-57.016-20.487c-1.527-0.551-2.325-2.245-1.776-3.775 0.533-1.486 2.247-2.322 3.77-1.779l57.012 20.49 9.724-27.063-57.011-20.487c-0.74-0.267-1.331-0.802-1.673-1.517-0.331-0.718-0.367-1.518-0.108-2.255 0.524-1.457 2.243-2.293 3.766-1.747zm38.903 39.535-47.033-16.907c-6.865-2.459-14.882 1.336-17.336 8.176-2.532 7.037 1.14 14.81 8.171 17.339l47.038 16.904-2.553 7.102-47.038-16.904c-6.866-2.482-14.877 1.331-17.331 8.171-1.228 3.407-1.051 7.089 0.492 10.367 1.548 3.275 4.271 5.753 7.679 6.97l47.038 16.906-2.553 7.1-47.038-16.901c-6.866-2.486-14.882 1.336-17.336 8.171-1.225 3.407-1.051 7.083 0.492 10.356 1.542 3.277 4.275 5.758 7.679 6.975l46.328 16.652c-7.803 13.645-22.302 22.199-38.302 22.199-5.075 0-10.09-0.881-14.908-2.615l-61.355-22.03c-20.386-7.33-32.159-28.14-28.578-48.98l50.373 18.1c6.882 2.485 14.882-1.336 17.339-8.171 1.225-3.407 1.048-7.084-0.495-10.364-1.543-3.278-4.27-5.753-7.677-6.978l-51.074-18.351 2.55-7.102 51.074 18.354c6.887 2.485 14.887-1.344 17.339-8.171 2.526-7.032-1.142-14.809-8.171-17.339l-51.074-18.354 2.55-7.1 51.074 18.352c6.882 2.488 14.882-1.336 17.339-8.171 2.529-7.029-1.137-14.81-8.171-17.339l-51.081-18.351 2.55-7.099 51.071 18.351c6.887 2.478 14.882-1.325 17.342-8.171 2.532-7.029-1.14-14.81-8.169-17.339l-50.77-18.245c7.423-14.778 22.701-24.387 39.509-24.387 5.08 0 10.11 0.881 14.941 2.62l61.341 22.043c11.117 3.993 20.003 12.073 25.041 22.758 4.272 9.062 5.328 19.082 3.112 28.695l-46.74-16.793c-6.871-2.475-14.877 1.331-17.336 8.171-1.228 3.41-1.052 7.084 0.491 10.362s4.272 5.753 7.68 6.972l47.033 16.904-2.558 7.097zm-119.67 140.9-27.778-9.673v-27.978l57.446 16.906-29.668 20.745zm-10.393 8.699-0.541 39.695h-16.818l0.106-46.147v-0.637l17.264 6.007-0.011 1.082z"/>
   </g>
  </g>
 </g>
</svg>
